# xmcd
#
# Track frame offsets:
# 150
# 16825
# 32215
# 52029
# 68988
# 89719
# 109658
# 127270
# 147715
# 168021
# 186785
# 205049
# 218605
# 240202
#
# Disc length: 3441 seconds
#
#
# Revision: 0
# Processed by: cddbd v1.5.2PL0 Copyright (c) Steve Scherf et al.
# Submitted via: FreeRIP 2.951 
#
DISCID=c80d6f0e
DTITLE=ibrahim tatlýses - bulamadým
DYEAR=2007
DGENRE=Other
TTITLE0=bulamadým
TTITLE1=mavi çalar
TTITLE2=sen al canýmý
TTITLE3=senin pabucun dama
TTITLE4=urfa sana küsmüþ
TTITLE5=türlü türlü
TTITLE6=aðrý daðý (cano cano)
TTITLE7=saki
TTITLE8=yok yok
TTITLE9=yetim cemo
TTITLE10=ayazdýr geceler
TTITLE11=eþarbýný yan baðlama
TTITLE12=etek sarý
TTITLE13=aðrý daðý (cano cano) remix
EXTD=
EXTT0=
EXTT1=
EXTT2=
EXTT3=
EXTT4=
EXTT5=
EXTT6=
EXTT7=
EXTT8=
EXTT9=
EXTT10=
EXTT11=
EXTT12=
EXTT13=
PLAYORDER=
